<?xml version="1.0" encoding="UTF-8" standalone="no"?>
<!-- Created with Inkscape (http://www.inkscape.org/) -->

<svg
   width="35"
   height="35"
   viewBox="0 0 9.2604165 9.2604169"
   version="1.1"
   id="svg5"
   xmlns="http://www.w3.org/2000/svg"
   xmlns:svg="http://www.w3.org/2000/svg">
  <defs
     id="defs2" />
  <g
     id="layer1"
     style="display:none;opacity:1">
    <g
       id="layer3"
       style="display:inline">
      <path
         style="display:inline;fill:#ffffff;fill-opacity:1;stroke:none;stroke-width:0.0351896;stroke-miterlimit:4;stroke-dasharray:none;stroke-opacity:1;paint-order:markers fill stroke"
         d="M 2.38125,7.9375 H 7.1437499 V 7.6729166 H 6.8791666 V 7.14375 H 6.6145833 V 6.35 H 6.3499999 V 5.55625 H 6.6145833 V 5.0270833 H 6.8791666 V 4.4979167 H 7.1437499 V 3.96875 H 7.4083332 V 3.175 H 7.672917 V 2.1166667 H 7.4083332 V 1.5875 H 2.6458333 V 2.1166667 H 2.9104166 V 3.175 H 2.6458333 V 3.96875 H 2.38125 V 4.4979167 H 2.1166666 V 5.0270833 H 1.8520833 V 5.55625 H 1.5875 V 6.35 H 1.8520833 V 7.14375 H 2.1166666 V 7.6729166 H 2.38125 Z"
         id="path1423-6" />
    </g>
    <g
       id="layer19">
      <path
         style="fill:#ececec;stroke:none;stroke-width:0.0351896;paint-order:markers fill stroke"
         d="m 2.6458334,1.5875 h 4.7625 V 2.1166667 H 7.6729167 V 2.38125 H 5.0270834 4.2333334 V 2.1166667 h -1.5875 z"
         id="path18672" />
      <path
         style="fill:#ececec;stroke:none;stroke-width:0.0351896;paint-order:markers fill stroke"
         d="M 1.8520833,6.3499999 4.7625,6.35 v 0.2645834 h 1.8520834 l -2e-7,0.5291665 h 0.2645834 v 0.5291667 h -3.96875 V 7.4083332 h -0.79375 V 7.1437499 H 1.8520833 Z"
         id="path18806" />
      <path
         style="fill:#cccccc;stroke:none;stroke-width:0.0351896;paint-order:markers fill stroke"
         d="m 2.1166666,7.4083332 h 0.79375 V 7.6729166 H 7.1437499 V 7.9374999 H 2.38125 V 7.6729166 H 2.1166666 Z"
         id="path18808" />
    </g>
    <g
       id="layer2"
       style="display:inline">
      <path
         style="fill:#ffffff;fill-opacity:0;stroke:#000000;stroke-width:0.0351896;stroke-miterlimit:4;stroke-dasharray:none;stroke-opacity:1;paint-order:markers fill stroke"
         d="M 2.3812501,7.9375 H 7.14375 V 7.6729166 H 6.8791667 V 7.14375 H 6.6145834 V 6.35 H 6.35 V 5.55625 H 6.6145834 V 5.0270833 H 6.8791667 V 4.4979167 H 7.14375 V 3.96875 H 7.4083333 V 3.175 H 7.6729167 V 2.1166667 H 7.4083333 V 1.5875 H 2.6458334 V 2.1166667 H 2.9104167 V 3.175 H 2.6458334 V 3.96875 H 2.3812501 V 4.4979167 H 2.1166667 V 5.0270833 H 1.8520834 V 5.55625 H 1.5875001 V 6.35 h 0.2645833 v 0.79375 h 0.2645833 v 0.5291666 h 0.2645834 z"
         id="path1423" />
    </g>
  </g>
  <g
     id="layer4"
     style="display:none;opacity:1">
    <g
       id="layer6"
       style="display:inline">
      <path
         style="fill:#ffffff;fill-opacity:1;stroke:none;stroke-width:0.0351896;stroke-miterlimit:4;stroke-dasharray:none;stroke-opacity:1;paint-order:markers fill stroke"
         d="M 2.38125,1.8520834 H 7.1437499 V 2.1166667 H 7.4083334 V 2.38125 h 0.2645833 l 3e-7,0.7937501 H 7.4083332 v 0.79375 H 7.1437499 V 4.4979167 H 6.8791666 V 5.0270834 H 6.6145832 V 5.55625 H 6.3499999 V 6.35 H 6.6145832 V 7.14375 H 6.8791666 V 7.4083333 H 7.4083332 V 7.6729167 H 2.6458333 V 7.4083333 H 2.1166666 V 7.14375 H 1.8520833 V 6.35 H 1.5875 V 5.55625 H 1.8520833 V 5.0270834 H 2.1166666 V 4.4979167 H 2.38125 V 3.9687501 h 0.2645833 v -0.79375 H 2.9104166 V 2.1166667 H 2.38125 Z"
         id="path2324-7" />
    </g>
    <g
       id="layer20">
      <path
         style="fill:#ececec;stroke:none;stroke-width:0.0351896;paint-order:markers fill stroke"
         d="m 2.9104166,2.38125 h 4.7625 V 3.175 H 7.4083332 V 3.4395833 H 4.7624999 V 3.175 H 2.9104166 Z"
         id="path19279" />
      <path
         style="fill:#cccccc;stroke:none;stroke-width:0.0351896;paint-order:markers fill stroke"
         d="M 2.9104166,2.38125 V 2.1166666 H 7.4083332 V 2.38125 Z"
         id="path19347" />
      <path
         style="fill:#ececec;stroke:none;stroke-width:0.0351896;paint-order:markers fill stroke"
         d="M 1.8520833,6.3499999 H 5.2916666 V 6.0854166 H 6.3499999 V 6.3499999 H 6.6145832 V 6.8791666 H 5.5562499 V 7.1437499 H 1.8520833 Z"
         id="path19481" />
      <path
         style="fill:#cccccc;stroke:none;stroke-width:0.0351896;paint-order:markers fill stroke"
         d="M 2.1166666,7.1437499 H 5.5562499 V 6.8791666 H 6.6145832 V 7.1437499 H 6.8791666 V 7.4083332 H 7.4083332 V 7.6729166 H 2.6458333 V 7.4083332 H 2.1166666 Z"
         id="path19549" />
    </g>
    <g
       id="layer5">
      <path
         style="fill:none;fill-opacity:1;stroke:#000000;stroke-width:0.0351896;stroke-miterlimit:4;stroke-dasharray:none;stroke-opacity:1;paint-order:markers fill stroke"
         d="m 2.38125,1.8520833 h 4.7624999 v 0.2645833 l 0.2645835,1e-7 V 2.38125 h 0.2645833 l -1e-7,0.79375 H 7.4083332 V 3.96875 H 7.1437499 V 4.4979166 H 6.8791666 V 5.0270833 H 6.6145832 V 5.5562499 H 6.3499999 v 0.79375 h 0.2645833 v 0.79375 H 6.8791666 V 7.4083332 H 7.4083332 V 7.6729166 H 2.6458333 V 7.4083332 H 2.1166666 V 7.1437499 H 1.8520833 v -0.79375 H 1.5875 v -0.79375 H 1.8520833 V 5.0270833 H 2.1166666 V 4.4979166 H 2.38125 V 3.96875 H 2.6458333 V 3.175 h 0.2645833 l 10e-8,-1.0583333 H 7.14375 l -4.2333334,-1e-7 H 2.38125 Z"
         id="path2324" />
    </g>
  </g>
  <g
     id="layer7"
     style="display:none;opacity:1">
    <g
       id="g2646"
       style="display:inline">
      <path
         style="fill:#ffffff;fill-opacity:1;stroke:none;stroke-width:0.0351896;stroke-miterlimit:4;stroke-dasharray:none;stroke-opacity:1;paint-order:markers fill stroke"
         d="M 2.9104166,2.1166666 V 2.6458333 H 2.38125 v -0.79375 H 6.8791666 7.4083334 V 2.1166667 2.38125 h 0.2645833 l -1e-7,0.79375 H 7.4083332 V 3.96875 H 7.1437499 V 4.4979166 H 6.8791666 V 5.0270833 H 6.6145832 V 5.5562499 H 6.3499999 v 0.79375 h 0.2645833 v 0.79375 H 6.8791666 V 7.6729166 7.1437499 l 0.5291668,10e-8 V 7.9375 l -4.7625001,-1e-7 V 7.6729166 H 2.38125 V 7.4083332 H 2.1166666 V 7.1437499 H 1.8520833 v -0.79375 H 1.5875 v -0.79375 H 1.8520833 V 5.0270833 H 2.1166666 V 4.4979166 H 2.38125 V 3.96875 H 2.6458333 V 3.175 h 0.2645833 z"
         id="path2644" />
    </g>
    <g
       id="layer21">
      <path
         style="fill:#cccccc;stroke:none;stroke-width:0.0351896;paint-order:markers fill stroke"
         d="M 7.1437499,2.6458333 H 7.4083332 V 2.1166666 H 7.1437499 Z"
         id="path20525" />
      <path
         style="fill:#ececec;stroke:none;stroke-width:0.0351896;paint-order:markers fill stroke"
         d="M 7.4083332,2.38125 H 7.6729166 V 3.175 H 7.4083332 V 3.4395833 H 3.96875 V 3.175 H 3.175 V 2.9104166 H 2.9104166 V 2.6458333 h 4.4979166 z"
         id="path20527" />
      <path
         style="fill:#ececec;stroke:none;stroke-width:0.0351896;paint-order:markers fill stroke"
         d="m 1.5875,6.0854166 h 0.5291666 v 0.2645833 h 4.4979166 v 0.79375 H 6.8791666 V 7.6729166 H 7.4083332 V 7.9374999 H 2.6458333 V 7.6729166 H 2.38125 V 7.4083332 H 2.1166666 V 7.1437499 H 1.8520833 v -0.79375 H 1.5875 Z"
         id="path20562" />
      <path
         style="fill:#cccccc;stroke:none;stroke-width:0.0351896;paint-order:markers fill stroke"
         d="m 2.1166666,7.1437499 h 1.5875 v 0.2645833 h 2.38125 V 7.6729166 H 7.1437499 V 7.9374999 H 2.6458333 V 7.6729166 H 2.38125 V 7.4083332 H 2.1166666 Z"
         id="path20564" />
      <path
         style="fill:#cccccc;stroke:none;stroke-width:0.0351896;paint-order:markers fill stroke"
         d="M 2.9104166,2.9104166 H 7.4083332 V 2.6458333 H 2.9104166 Z"
         id="path20745" />
    </g>
    <g
       id="layer8"
       style="display:inline">
      <path
         style="fill:none;fill-opacity:1;stroke:#000000;stroke-width:0.0351896;stroke-miterlimit:4;stroke-dasharray:none;stroke-opacity:1;paint-order:markers fill stroke"
         d="M 7.14375,2.1166667 V 2.6458333 H 2.9104166 2.38125 v -0.79375 h 4.4979166 1e-7 0.5291667 V 2.38125 h 0.2645833 l -1e-7,0.79375 H 7.4083332 V 3.96875 H 7.1437499 V 4.4979166 H 6.8791666 V 5.0270833 H 6.6145832 V 5.5562499 H 6.3499999 v 0.79375 h 0.2645833 v 0.79375 H 6.8791666 V 7.6729166 7.1437499 l 0.5291668,10e-8 V 7.9375 l -4.7625001,-1e-7 V 7.6729166 H 2.38125 V 7.4083332 H 2.1166666 V 7.1437499 H 1.8520833 v -0.79375 H 1.5875 v -0.79375 H 1.8520833 V 5.0270833 H 2.1166666 V 4.4979166 H 2.38125 V 3.96875 H 2.6458333 V 3.175 h 0.2645833 l 10e-8,-0.5291667 H 7.14375 Z"
         id="path2576" />
    </g>
  </g>
  <g
     id="layer9"
     style="display:inline;opacity:1">
    <g
       id="layer23">
      <path
         style="fill:#ffffff;stroke:none;stroke-width:0.0351896;paint-order:markers fill stroke"
         d="M 1.8520833,3.175 V 2.38125 h 5.2916666 v 0.5291666 h 0.2645833 v 0.79375 H 7.1437499 V 3.96875 H 6.8791666 V 4.7624999 H 6.6145832 V 5.2916666 H 6.3499999 v 1.0583333 h 0.5291667 v 0.5291667 h 0.79375 l 1e-7,0.5291668 H 7.4083334 v 0.2645833 l -4.7625001,-1e-7 V 7.1437499 H 2.38125 V 6.8791666 H 2.1166666 V 6.3499999 H 1.8520833 V 5.2916666 H 2.1166666 V 4.7624999 H 2.38125 V 3.96875 H 2.6458333 V 3.4395833 H 2.38125 V 3.175 Z"
         id="path21279" />
    </g>
    <g
       id="layer22">
      <path
         style="fill:#cccccc;stroke:none;stroke-width:0.0351896;paint-order:markers fill stroke"
         d="M 2.6458333,3.7041666 H 6.8791666 V 3.4395833 H 7.1437499 V 3.175 H 7.4083332 V 2.9104166 H 6.8791666 V 3.175 H 2.38125 v 0.2645833 h 0.2645833 z"
         id="path20881" />
      <path
         style="fill:#ececec;stroke:none;stroke-width:0.0351896;paint-order:markers fill stroke"
         d="M 2.38125,4.4979166 H 5.2916666 V 4.2333333 h 1.5875 V 3.96875 H 7.1437499 V 3.7041666 H 7.4083332 V 3.175 H 7.1437499 V 3.4395833 H 6.8791666 V 3.7041666 H 2.6458333 v 0.2645834 0 H 2.38125 Z"
         id="path21380" />
      <path
         style="fill:#ececec;stroke:none;stroke-width:0.0351896;paint-order:markers fill stroke"
         d="m 7.4083334,7.4083334 -2e-7,-2e-7 H 7.1437499 V 6.8791666 h 0.5291667 l 1e-7,0.5291668 z"
         id="path21551" />
      <path
         style="fill:#cccccc;stroke:none;stroke-width:0.0351896;paint-order:markers fill stroke"
         d="m 2.38125,6.8791666 h 3.7041666 v 0.2645833 h 1.0583333 l 0.2645835,10e-8 -2e-7,0.2645832 V 7.6729166 H 2.6458333 V 7.1437499 H 2.38125 Z"
         id="path21448" />
      <path
         style="fill:#ececec;stroke:none;stroke-width:0.0351896;paint-order:markers fill stroke"
         d="M 1.8520833,6.0854166 H 6.3499999 V 6.3499999 H 6.8791666 V 6.8791666 H 7.1437499 V 7.1437499 H 6.0854166 V 6.8791666 h -3.96875 V 6.3499999 H 1.8520833 Z"
         id="path21516" />
    </g>
    <g
       id="layer10"
       style="display:inline">
      <path
         style="fill:none;fill-opacity:1;stroke:#000000;stroke-width:0.0351896;stroke-miterlimit:4;stroke-dasharray:none;stroke-opacity:1;paint-order:markers fill stroke"
         d="m 2.6458333,7.6729166 4.7625001,1e-7 V 7.4083334 h 0.2645833 l -1e-7,-0.5291668 H 7.1437499 V 7.4083332 H 7.4083332 7.1437499 V 6.8791666 H 6.8791666 V 6.3499999 H 6.3499999 V 5.2916666 H 6.6145832 V 4.7624999 H 6.8791666 V 3.96875 H 7.14375 V 3.7041667 h 0.2645834 l -1e-7,-0.79375 H 7.14375 V 2.6458333 2.38125 H 6.8791666 1.8520833 V 3.175 H 2.38125 6.8791667 V 2.6458333 H 6.6145833 l 1e-7,0.2645834 -1e-7,-0.2645834 H 6.8791667 V 2.9104167 3.175 H 2.38125 V 3.4395833 H 2.6458333 V 3.96875 H 2.38125 V 4.7624999 H 2.1166666 V 5.2916666 H 1.8520833 V 6.3499999 H 2.1166666 V 6.8791666 H 2.38125 v 0.2645833 h 0.2645833 z"
         id="path3618" />
      <path
         style="fill:#ffffff;fill-opacity:1;stroke:#000000;stroke-width:0;stroke-miterlimit:4;stroke-dasharray:none;stroke-opacity:1;paint-order:markers fill stroke"
         d="m 7.4083332,7.4083332 v 0"
         id="path3655" />
    </g>
  </g>
  <g
     id="layer11"
     style="display:none;opacity:1">
    <g
       id="layer13"
       style="display:inline">
      <path
         style="fill:#ffffff;stroke:none;stroke-width:0.0351896;paint-order:markers fill stroke"
         d="M 2.6458333,7.6729166 H 7.4083332 V 7.4083332 H 7.6729166 V 6.3499999 h -0.79375 l 2e-7,10e-8 L 6.35,6.35 V 6.0854167 l -10e-8,-0.2645834 V 4.7624999 H 6.6145832 V 3.96875 H 6.8791666 V 2.6458333 H 6.6145832 V 2.38125 H 2.1166666 V 2.6458333 H 1.8520833 v 0.79375 H 2.1166666 V 3.7041666 H 2.38125 V 4.2333333 H 2.1166666 V 5.2916666 H 1.8520833 V 6.3499999 H 2.1166666 V 6.8791666 H 2.38125 v 0.5291666 h 0.2645833 z"
         id="path12656" />
    </g>
    <g
       id="layer12"
       style="display:inline" />
    <path
       style="fill:none;stroke:#000000;stroke-width:0.0351896;paint-order:markers fill stroke"
       d="m 2.1166666,3.7041668 v -2e-7 -0.2645833 H 1.8520833 v -0.79375 H 2.1166666 V 2.38125 H 6.6145832 V 2.6458333 H 6.8791666 V 3.96875 H 6.6145832 V 4.7624999 H 6.3499999 V 5.2916666 6.35 H 6.6145834 6.8791667 6.35 v 0.2645834 h 0.2645834 v 0.2645834 h 0.2645833 l -1e-7,-0.5291669 v -1e-7 l 1e-7,2e-7 v 0 0.79375 h 0.5291666 v 0 l 1e-7,-0.5291666 H 7.14375 V 6.8791667 6.6145834 h 0.2645834 l -1e-7,0.5291665 v 0 H 6.8791667 V 6.35 v 0 0 l 0.5291665,-2e-7 v 1e-7 l 2e-7,10e-8 H 7.6729167 V 6.6145833 7.4083334 H 7.4083334 l -2e-7,-2e-7 v 0.2645834 l -4.7624999,2e-7 V 7.4083334 H 2.3812499 V 6.8791668 H 2.1166666 V 6.3500001 H 1.8520833 V 5.2916668 H 2.1166666 V 4.2333335 H 2.3812499 V 3.7041668 H 2.1166666 L 6.35,3.7041667 v 0 -0.2635243 l 0.2645834,-0.00106 V 2.9104167 H 6.0854167 V 3.175 H 6.35"
       id="path5323" />
  </g>
  <g
     id="layer14"
     style="display:none;opacity:1">
    <g
       id="layer16"
       style="display:inline">
      <path
         style="fill:#ffffff;stroke:none;stroke-width:0.0351896;paint-order:markers fill stroke"
         d="M 1.8520833,4.4979158 V 3.4395825 H 2.1166666 V 3.1749992 H 6.6145832 V 3.4395825 H 6.8791666 V 3.9687492 H 7.1437499 V 4.7624991 H 6.8791666 V 5.2916658 H 6.6145832 v 0.79375 h 0.2645834 v 0.2645833 h 0.79375 V 7.4083324 H 2.6458333 V 7.1437491 H 2.1166666 V 6.8791658 H 1.8520833 v -1.5875 h 0.2645833 v -0.79375 z"
         id="path14754" />
    </g>
    <g
       id="layer15">
      <g
         id="g14718">
        <path
           style="fill:none;stroke:#000000;stroke-width:0.0351896;paint-order:markers fill stroke"
           d="M 1.8520833,3.7041666 V 3.4395833 H 2.1166666 V 3.175 H 6.6145832 V 3.4395833 H 6.8791666 V 3.96875 H 7.1437499 V 4.7624999 H 6.8791666 V 5.2916666 H 6.6145832 v 0.79375 h 0.2645834 l 1e-7,1.0583334 H 7.14375 7.4083333 l -10e-8,-0.5291668 -0.2645832,2e-7 V 6.8791667 6.6145834 l 0.2645832,-2e-7 10e-8,0.5291668 H 6.8791667 l -1e-7,-0.7937501 h 0.79375 v 0.2645833 l 1e-7,2e-7 v 0.5291667 l -1e-7,-2e-7 V 7.4083332 H 2.6458333 V 7.1437499 H 2.1166666 V 6.8791666 H 1.8520833 v -1.5875 h 0.2645833 v -0.79375 H 1.8520833 Z"
           id="path12786" />
        <path
           style="fill:none;stroke:#000000;stroke-width:0.0351896;paint-order:markers fill stroke"
           d="M 2.1166666,4.4979166 H 6.6145834 V 4.2333333 h -2e-7 V 3.7041666 l -0.5291665,10e-8 V 4.2333333 H 6.35 V 3.96875"
           id="path12854" />
      </g>
    </g>
  </g>
</svg>
