<?xml version="1.0" encoding="UTF-8" standalone="no"?>
<!-- Created with Inkscape (http://www.inkscape.org/) -->

<svg
   width="35"
   height="35"
   viewBox="0 0 9.2604165 9.2604169"
   version="1.1"
   id="svg5"
   inkscape:version="1.1.1 (3bf5ae0d25, 2021-09-20, custom)"
   sodipodi:docname="roca.svg"
   xmlns:inkscape="http://www.inkscape.org/namespaces/inkscape"
   xmlns:sodipodi="http://sodipodi.sourceforge.net/DTD/sodipodi-0.dtd"
   xmlns="http://www.w3.org/2000/svg"
   xmlns:svg="http://www.w3.org/2000/svg">
  <sodipodi:namedview
     id="namedview7"
     pagecolor="#ffffff"
     bordercolor="#666666"
     borderopacity="1.0"
     inkscape:pageshadow="2"
     inkscape:pageopacity="0.0"
     inkscape:pagecheckerboard="0"
     inkscape:document-units="px"
     showgrid="true"
     units="px"
     width="32px"
     showguides="true"
     inkscape:guide-bbox="true"
     inkscape:snap-grids="true"
     inkscape:zoom="11.313709"
     inkscape:cx="5.4358834"
     inkscape:cy="18.384776"
     inkscape:window-width="1366"
     inkscape:window-height="701"
     inkscape:window-x="0"
     inkscape:window-y="0"
     inkscape:window-maximized="1"
     inkscape:current-layer="layer2">
    <sodipodi:guide
       position="0.79375,9.2604167"
       orientation="-1,0"
       id="guide824"
       inkscape:label=""
       inkscape:locked="false"
       inkscape:color="rgb(0,0,255)" />
    <inkscape:grid
       type="xygrid"
       id="grid826" />
    <sodipodi:guide
       position="8.4666667,0"
       orientation="1,0"
       id="guide828" />
    <sodipodi:guide
       position="0,8.4666667"
       orientation="0,-1"
       id="guide830" />
    <sodipodi:guide
       position="9.2604167,0.79375"
       orientation="0,-1"
       id="guide832" />
  </sodipodi:namedview>
  <defs
     id="defs2" />
  <g
     inkscape:label="Layer 1"
     inkscape:groupmode="layer"
     id="layer1"
     style="display:inline" />
  <g
     inkscape:groupmode="layer"
     id="layer2"
     inkscape:label="Layer 2"
     style="display:inline">
    <g
       id="g47612"
       transform="translate(1.4285712e-8,0.79375005)">
      <path
         style="opacity:1;fill:#989898;fill-opacity:0.997796;stroke:#d34f4f;stroke-width:0.0351896;stroke-miterlimit:4;stroke-dasharray:none;stroke-opacity:0.00489544;paint-order:markers fill stroke"
         d="M 3.4395833,3.7041666 V 3.4395833 H 3.96875 V 3.175 H 4.7624999 V 2.9104166 H 5.0270833 V 2.38125 H 5.2916666 V 2.1166666 h 0.79375 V 1.8520833 h 1.5875 V 2.1166666 H 7.9374999 V 2.38125 H 8.4666666 V 4.2333333 H 8.2020832 V 4.7624999 H 7.9374999 V 4.4979166 H 7.4083332 V 4.2333333 H 6.3499999 V 3.96875 H 5.0270833 V 3.7041666 Z"
         id="path19374" />
      <path
         style="opacity:1;fill:#858585;fill-opacity:1;stroke:#d34f4f;stroke-width:0.0351896;stroke-miterlimit:4;stroke-dasharray:none;stroke-opacity:0.00489544;paint-order:markers fill stroke"
         d="M 6.6145834,3.4395833 H 7.6729167 V 3.1749999 H 7.9375 V 2.6458333 H 7.6729167 V 3.1749999 H 6.6145834 Z"
         id="path22915" />
      <path
         style="opacity:1;fill:#ada7a4;fill-opacity:1;stroke:#d34f4f;stroke-width:0.0351896;stroke-miterlimit:4;stroke-dasharray:none;stroke-opacity:0.00489544;paint-order:markers fill stroke"
         d="m 5.8208333,2.9104166 c 0.5291666,0 0.7937499,0 0.7937499,0 V 2.6458333 H 5.8208333 Z"
         id="path26501" />
    </g>
    <g
       id="g47617"
       transform="translate(9.9999995e-8,0.79374999)">
      <path
         style="opacity:1;fill:#858585;fill-opacity:0.997796;stroke:#000000;stroke-width:0.0351896;stroke-miterlimit:4;stroke-dasharray:none;stroke-opacity:0.00489544;paint-order:markers fill stroke"
         d="M 1.0583333,5.2916666 V 5.0270833 H 1.5875 V 4.7624999 H 2.38125 V 4.2333333 h 0.2645833 v -0.79375 h 0.79375 v 0.2645833 h 1.5875 V 3.96875 H 6.3499999 V 4.2333333 H 7.4083332 V 4.4979166 H 7.9374999 V 5.5562499 H 7.6729166 V 5.8208333 H 5.5562499 V 6.0854166 H 3.96875 V 5.8208333 H 2.6458333 V 5.5562499 h -0.79375 V 5.2916666 Z"
         id="path18000" />
      <path
         style="opacity:1;fill:#6e6e6e;fill-opacity:1;stroke:#d34f4f;stroke-width:0.0351896;stroke-miterlimit:4;stroke-dasharray:none;stroke-opacity:0.00489544;paint-order:markers fill stroke"
         d="M 3.96875,4.7624999 V 4.4979166 H 5.2916666 V 4.7624999 H 6.3499999 V 5.0270833 H 5.2916666 V 4.7624999 Z"
         id="path37734" />
      <path
         style="opacity:1;fill:#6e6e6e;fill-opacity:1;stroke:#d34f4f;stroke-width:0.0351896;stroke-miterlimit:4;stroke-dasharray:none;stroke-opacity:0.00489544;paint-order:markers fill stroke"
         d="M 3.96875,5.8208333 H 5.5562499 V 5.5562499 H 6.6145832 V 5.2916666 H 7.1437499 V 4.7624999 h 0.79375 v 0.79375 H 7.6729166 V 5.8208333 H 5.5562499 V 6.0854166 H 3.96875 Z"
         id="path43970" />
    </g>
    <g
       id="g47607"
       transform="translate(5.7142854e-8,0.79374998)">
      <path
         style="opacity:1;fill:#ada7a4;fill-opacity:0.997796;stroke:#d34f4f;stroke-width:0.0351896;stroke-miterlimit:4;stroke-dasharray:none;stroke-opacity:0.00489544;paint-order:markers fill stroke"
         d="M 1.0583333,5.0270833 H 1.5875 V 4.7624999 H 2.38125 V 4.2333333 h 0.2645833 v -0.79375 H 3.96875 V 3.175 H 4.7624999 V 2.9104166 H 5.0270833 V 2.38125 H 5.2916666 V 2.1166666 h 0.79375 V 1.8520833 H 5.8208333 V 1.5875 H 4.4979166 V 1.8520833 H 2.6458333 V 2.38125 H 2.1166666 V 2.9104166 H 1.0583333 V 3.175 H 0.79374999 V 4.4979166 H 1.0583333 Z"
         id="path18035" />
      <path
         style="opacity:1;fill:#989898;fill-opacity:1;stroke:#d34f4f;stroke-width:0.0351896;stroke-miterlimit:4;stroke-dasharray:none;stroke-opacity:0.00489544;paint-order:markers fill stroke"
         d="M 3.175,2.6458333 V 2.1166666 H 4.2333333 V 2.38125 h -0.79375 v 0.2645833 z"
         id="path30865" />
      <path
         style="opacity:1;fill:#c0bbb9;fill-opacity:1;stroke:#d34f4f;stroke-width:0.0351896;stroke-miterlimit:4;stroke-dasharray:none;stroke-opacity:0.00489544;paint-order:markers fill stroke"
         d="M 1.3229166,3.96875 V 3.4395833 H 1.5875 V 3.96875 Z"
         id="path32830" />
      <path
         style="opacity:1;fill:#c0bbb9;fill-opacity:1;stroke:#d34f4f;stroke-width:0.0351896;stroke-miterlimit:4;stroke-dasharray:none;stroke-opacity:0.00489544;paint-order:markers fill stroke"
         d="M 1.0583333,4.4979166 V 3.175 H 2.1166666 V 2.9104166 H 2.38125 V 2.6458333 H 2.6458333 V 2.38125 H 2.9104166 V 2.1166666 H 3.175 V 1.8520833 H 2.6458333 V 2.38125 H 2.1166666 V 2.9104166 H 1.0583333 V 3.175 H 0.79374999 v 1.3229166 z"
         id="path43972" />
    </g>
  </g>
</svg>
