<?xml version="1.0" encoding="UTF-8" standalone="no"?>
<!-- Created with Inkscape (http://www.inkscape.org/) -->

<svg
   width="35"
   height="35"
   viewBox="0 0 9.2604165 9.2604169"
   version="1.1"
   id="svg5"
   inkscape:version="1.1.1 (3bf5ae0d25, 2021-09-20, custom)"
   sodipodi:docname="6.svg"
   xmlns:inkscape="http://www.inkscape.org/namespaces/inkscape"
   xmlns:sodipodi="http://sodipodi.sourceforge.net/DTD/sodipodi-0.dtd"
   xmlns="http://www.w3.org/2000/svg"
   xmlns:svg="http://www.w3.org/2000/svg">
  <sodipodi:namedview
     id="namedview7"
     pagecolor="#5abbcf"
     bordercolor="#666666"
     borderopacity="1.0"
     inkscape:pageshadow="2"
     inkscape:pageopacity="0"
     inkscape:pagecheckerboard="0"
     inkscape:document-units="px"
     showgrid="true"
     units="px"
     width="32px"
     showguides="true"
     inkscape:guide-bbox="true"
     inkscape:snap-grids="true"
     inkscape:zoom="8"
     inkscape:cx="44.922903"
     inkscape:cy="17.087527"
     inkscape:window-width="1366"
     inkscape:window-height="701"
     inkscape:window-x="0"
     inkscape:window-y="0"
     inkscape:window-maximized="1"
     inkscape:current-layer="layer1">
    <sodipodi:guide
       position="0.79375,9.2604167"
       orientation="-1,0"
       id="guide824"
       inkscape:label=""
       inkscape:locked="false"
       inkscape:color="rgb(0,0,255)" />
    <inkscape:grid
       type="xygrid"
       id="grid826" />
    <sodipodi:guide
       position="8.4666667,0"
       orientation="1,0"
       id="guide828" />
    <sodipodi:guide
       position="0,8.4666667"
       orientation="0,-1"
       id="guide830" />
    <sodipodi:guide
       position="9.2604167,0.79375"
       orientation="0,-1"
       id="guide832" />
  </sodipodi:namedview>
  <defs
     id="defs2" />
  <g
     inkscape:groupmode="layer"
     id="layer1"
     inkscape:label="Frame 1"
     style="display:none;opacity:1"
     sodipodi:insensitive="true">
    <g
       inkscape:groupmode="layer"
       id="layer3"
       inkscape:label="papel 1"
       style="display:inline">
      <path
         style="display:inline;fill:#ffffff;fill-opacity:1;stroke:none;stroke-width:0.0351896;stroke-miterlimit:4;stroke-dasharray:none;stroke-opacity:1;paint-order:markers fill stroke"
         d="M 2.38125,7.9375 H 7.1437499 V 7.6729166 H 6.8791666 V 7.14375 H 6.6145833 V 6.35 H 6.3499999 V 5.55625 H 6.6145833 V 5.0270833 H 6.8791666 V 4.4979167 H 7.1437499 V 3.96875 H 7.4083332 V 3.175 H 7.672917 V 2.1166667 H 7.4083332 V 1.5875 H 2.6458333 V 2.1166667 H 2.9104166 V 3.175 H 2.6458333 V 3.96875 H 2.38125 V 4.4979167 H 2.1166666 V 5.0270833 H 1.8520833 V 5.55625 H 1.5875 V 6.35 H 1.8520833 V 7.14375 H 2.1166666 V 7.6729166 H 2.38125 Z"
         id="path1423-6" />
    </g>
    <g
       inkscape:groupmode="layer"
       id="layer19"
       inkscape:label="sombra">
      <path
         style="fill:#ececec;stroke:none;stroke-width:0.0351896;paint-order:markers fill stroke"
         d="m 2.6458334,1.5875 h 4.7625 V 2.1166667 H 7.6729167 V 2.38125 H 5.0270834 4.2333334 V 2.1166667 h -1.5875 z"
         id="path18672"
         sodipodi:nodetypes="cccccccccc" />
      <path
         style="fill:#ececec;stroke:none;stroke-width:0.0351896;paint-order:markers fill stroke"
         d="M 1.8520833,6.3499999 4.7625,6.35 v 0.2645834 h 1.8520834 l -2e-7,0.5291665 h 0.2645834 v 0.5291667 h -3.96875 V 7.4083332 h -0.79375 V 7.1437499 H 1.8520833 Z"
         id="path18806"
         sodipodi:nodetypes="ccccccccccccc" />
      <path
         style="fill:#cccccc;stroke:none;stroke-width:0.0351896;paint-order:markers fill stroke"
         d="m 2.1166666,7.4083332 h 0.79375 V 7.6729166 H 7.1437499 V 7.9374999 H 2.38125 V 7.6729166 H 2.1166666 Z"
         id="path18808" />
    </g>
    <g
       inkscape:groupmode="layer"
       id="layer2"
       inkscape:label="outline 1"
       style="display:inline">
      <path
         style="fill:#ffffff;fill-opacity:0;stroke:#000000;stroke-width:0.0351896;stroke-miterlimit:4;stroke-dasharray:none;stroke-opacity:1;paint-order:markers fill stroke"
         d="M 2.3812501,7.9375 H 7.14375 V 7.6729166 H 6.8791667 V 7.14375 H 6.6145834 V 6.35 H 6.35 V 5.55625 H 6.6145834 V 5.0270833 H 6.8791667 V 4.4979167 H 7.14375 V 3.96875 H 7.4083333 V 3.175 H 7.6729167 V 2.1166667 H 7.4083333 V 1.5875 H 2.6458334 V 2.1166667 H 2.9104167 V 3.175 H 2.6458334 V 3.96875 H 2.3812501 V 4.4979167 H 2.1166667 V 5.0270833 H 1.8520834 V 5.55625 H 1.5875001 V 6.35 h 0.2645833 v 0.79375 h 0.2645833 v 0.5291666 h 0.2645834 z"
         id="path1423" />
    </g>
  </g>
  <g
     inkscape:groupmode="layer"
     id="layer4"
     inkscape:label="Frame 2"
     style="display:none;opacity:1"
     sodipodi:insensitive="true">
    <g
       inkscape:groupmode="layer"
       id="layer6"
       inkscape:label="papel 2"
       style="display:inline"
       sodipodi:insensitive="true">
      <path
         style="fill:#ffffff;fill-opacity:1;stroke:none;stroke-width:0.0351896;stroke-miterlimit:4;stroke-dasharray:none;stroke-opacity:1;paint-order:markers fill stroke"
         d="M 2.38125,1.8520834 H 7.1437499 V 2.1166667 H 7.4083334 V 2.38125 h 0.2645833 l 3e-7,0.7937501 H 7.4083332 v 0.79375 H 7.1437499 V 4.4979167 H 6.8791666 V 5.0270834 H 6.6145832 V 5.55625 H 6.3499999 V 6.35 H 6.6145832 V 7.14375 H 6.8791666 V 7.4083333 H 7.4083332 V 7.6729167 H 2.6458333 V 7.4083333 H 2.1166666 V 7.14375 H 1.8520833 V 6.35 H 1.5875 V 5.55625 H 1.8520833 V 5.0270834 H 2.1166666 V 4.4979167 H 2.38125 V 3.9687501 h 0.2645833 v -0.79375 H 2.9104166 V 2.1166667 H 2.38125 Z"
         id="path2324-7"
         sodipodi:nodetypes="ccccccccccccccccccccccccccccccccccccccccccc" />
    </g>
    <g
       inkscape:groupmode="layer"
       id="layer20"
       inkscape:label="sombra 1">
      <path
         style="fill:#ececec;stroke:none;stroke-width:0.0351896;paint-order:markers fill stroke"
         d="m 2.9104166,2.38125 h 4.7625 V 3.175 H 7.4083332 V 3.4395833 H 4.7624999 V 3.175 H 2.9104166 Z"
         id="path19279" />
      <path
         style="fill:#cccccc;stroke:none;stroke-width:0.0351896;paint-order:markers fill stroke"
         d="M 2.9104166,2.38125 V 2.1166666 H 7.4083332 V 2.38125 Z"
         id="path19347" />
      <path
         style="fill:#ececec;stroke:none;stroke-width:0.0351896;paint-order:markers fill stroke"
         d="M 1.8520833,6.3499999 H 5.2916666 V 6.0854166 H 6.3499999 V 6.3499999 H 6.6145832 V 6.8791666 H 5.5562499 V 7.1437499 H 1.8520833 Z"
         id="path19481" />
      <path
         style="fill:#cccccc;stroke:none;stroke-width:0.0351896;paint-order:markers fill stroke"
         d="M 2.1166666,7.1437499 H 5.5562499 V 6.8791666 H 6.6145832 V 7.1437499 H 6.8791666 V 7.4083332 H 7.4083332 V 7.6729166 H 2.6458333 V 7.4083332 H 2.1166666 Z"
         id="path19549" />
    </g>
    <g
       inkscape:groupmode="layer"
       id="layer5"
       inkscape:label="outline 2"
       sodipodi:insensitive="true">
      <path
         style="fill:none;fill-opacity:1;stroke:#000000;stroke-width:0.0351896;stroke-miterlimit:4;stroke-dasharray:none;stroke-opacity:1;paint-order:markers fill stroke"
         d="m 2.38125,1.8520833 h 4.7624999 v 0.2645833 l 0.2645835,1e-7 V 2.38125 h 0.2645833 l -1e-7,0.79375 H 7.4083332 V 3.96875 H 7.1437499 V 4.4979166 H 6.8791666 V 5.0270833 H 6.6145832 V 5.5562499 H 6.3499999 v 0.79375 h 0.2645833 v 0.79375 H 6.8791666 V 7.4083332 H 7.4083332 V 7.6729166 H 2.6458333 V 7.4083332 H 2.1166666 V 7.1437499 H 1.8520833 v -0.79375 H 1.5875 v -0.79375 H 1.8520833 V 5.0270833 H 2.1166666 V 4.4979166 H 2.38125 V 3.96875 H 2.6458333 V 3.175 h 0.2645833 l 10e-8,-1.0583333 H 7.14375 l -4.2333334,-1e-7 H 2.38125 Z"
         id="path2324"
         sodipodi:nodetypes="ccccccccccccccccccccccccccccccccccccccccccccc" />
    </g>
  </g>
  <g
     inkscape:groupmode="layer"
     id="layer7"
     inkscape:label="Frame 3"
     style="display:none;opacity:1"
     sodipodi:insensitive="true">
    <g
       inkscape:groupmode="layer"
       id="g2646"
       inkscape:label="papel 3"
       style="display:inline">
      <path
         style="fill:#ffffff;fill-opacity:1;stroke:none;stroke-width:0.0351896;stroke-miterlimit:4;stroke-dasharray:none;stroke-opacity:1;paint-order:markers fill stroke"
         d="M 2.9104166,2.1166666 V 2.6458333 H 2.38125 v -0.79375 H 6.8791666 7.4083334 V 2.1166667 2.38125 h 0.2645833 l -1e-7,0.79375 H 7.4083332 V 3.96875 H 7.1437499 V 4.4979166 H 6.8791666 V 5.0270833 H 6.6145832 V 5.5562499 H 6.3499999 v 0.79375 h 0.2645833 v 0.79375 H 6.8791666 V 7.6729166 7.1437499 l 0.5291668,10e-8 V 7.9375 l -4.7625001,-1e-7 V 7.6729166 H 2.38125 V 7.4083332 H 2.1166666 V 7.1437499 H 1.8520833 v -0.79375 H 1.5875 v -0.79375 H 1.8520833 V 5.0270833 H 2.1166666 V 4.4979166 H 2.38125 V 3.96875 H 2.6458333 V 3.175 h 0.2645833 z"
         id="path2644"
         sodipodi:nodetypes="ccccccccccccccccccccccccccccccccccccccccccccccc" />
    </g>
    <g
       inkscape:groupmode="layer"
       id="layer21"
       inkscape:label="sombra 2">
      <path
         style="fill:#cccccc;stroke:none;stroke-width:0.0351896;paint-order:markers fill stroke"
         d="M 7.1437499,2.6458333 H 7.4083332 V 2.1166666 H 7.1437499 Z"
         id="path20525" />
      <path
         style="fill:#ececec;stroke:none;stroke-width:0.0351896;paint-order:markers fill stroke"
         d="M 7.4083332,2.38125 H 7.6729166 V 3.175 H 7.4083332 V 3.4395833 H 3.96875 V 3.175 H 3.175 V 2.9104166 H 2.9104166 V 2.6458333 h 4.4979166 z"
         id="path20527" />
      <path
         style="fill:#ececec;stroke:none;stroke-width:0.0351896;paint-order:markers fill stroke"
         d="m 1.5875,6.0854166 h 0.5291666 v 0.2645833 h 4.4979166 v 0.79375 H 6.8791666 V 7.6729166 H 7.4083332 V 7.9374999 H 2.6458333 V 7.6729166 H 2.38125 V 7.4083332 H 2.1166666 V 7.1437499 H 1.8520833 v -0.79375 H 1.5875 Z"
         id="path20562" />
      <path
         style="fill:#cccccc;stroke:none;stroke-width:0.0351896;paint-order:markers fill stroke"
         d="m 2.1166666,7.1437499 h 1.5875 v 0.2645833 h 2.38125 V 7.6729166 H 7.1437499 V 7.9374999 H 2.6458333 V 7.6729166 H 2.38125 V 7.4083332 H 2.1166666 Z"
         id="path20564" />
      <path
         style="fill:#cccccc;stroke:none;stroke-width:0.0351896;paint-order:markers fill stroke"
         d="M 2.9104166,2.9104166 H 7.4083332 V 2.6458333 H 2.9104166 Z"
         id="path20745" />
    </g>
    <g
       inkscape:groupmode="layer"
       id="layer8"
       inkscape:label="outline 3"
       style="display:inline">
      <path
         style="fill:none;fill-opacity:1;stroke:#000000;stroke-width:0.0351896;stroke-miterlimit:4;stroke-dasharray:none;stroke-opacity:1;paint-order:markers fill stroke"
         d="M 7.14375,2.1166667 V 2.6458333 H 2.9104166 2.38125 v -0.79375 h 4.4979166 1e-7 0.5291667 V 2.38125 h 0.2645833 l -1e-7,0.79375 H 7.4083332 V 3.96875 H 7.1437499 V 4.4979166 H 6.8791666 V 5.0270833 H 6.6145832 V 5.5562499 H 6.3499999 v 0.79375 h 0.2645833 v 0.79375 H 6.8791666 V 7.6729166 7.1437499 l 0.5291668,10e-8 V 7.9375 l -4.7625001,-1e-7 V 7.6729166 H 2.38125 V 7.4083332 H 2.1166666 V 7.1437499 H 1.8520833 v -0.79375 H 1.5875 v -0.79375 H 1.8520833 V 5.0270833 H 2.1166666 V 4.4979166 H 2.38125 V 3.96875 H 2.6458333 V 3.175 h 0.2645833 l 10e-8,-0.5291667 H 7.14375 Z"
         id="path2576"
         sodipodi:nodetypes="cccccccccccccccccccccccccccccccccccccccccccccccccc" />
    </g>
  </g>
  <g
     inkscape:groupmode="layer"
     id="layer9"
     inkscape:label="Frame 4"
     style="display:none;opacity:1"
     sodipodi:insensitive="true">
    <g
       inkscape:groupmode="layer"
       id="layer23"
       inkscape:label="papel 5"
       sodipodi:insensitive="true">
      <path
         style="fill:#ffffff;stroke:none;stroke-width:0.0351896;paint-order:markers fill stroke"
         d="M 1.8520833,3.175 V 2.38125 h 5.2916666 v 0.5291666 h 0.2645833 v 0.79375 H 7.1437499 V 3.96875 H 6.8791666 V 4.7624999 H 6.6145832 V 5.2916666 H 6.3499999 v 1.0583333 h 0.5291667 v 0.5291667 h 0.79375 v 0.79375 H 2.6458333 V 7.1437499 H 2.38125 V 6.8791666 H 2.1166666 V 6.3499999 H 1.8520833 V 5.2916666 H 2.1166666 V 4.7624999 H 2.38125 V 3.96875 H 2.6458333 V 3.4395833 H 2.38125 V 3.175 Z"
         id="path21279" />
    </g>
    <g
       inkscape:groupmode="layer"
       id="layer22"
       inkscape:label="sombra 3">
      <path
         style="fill:#cccccc;stroke:none;stroke-width:0.0351896;paint-order:markers fill stroke"
         d="M 2.6458333,3.7041666 H 6.8791666 V 3.4395833 H 7.1437499 V 3.175 H 7.4083332 V 2.9104166 H 6.8791666 V 3.175 H 2.38125 v 0.2645833 h 0.2645833 z"
         id="path20881" />
      <path
         style="fill:#ececec;stroke:none;stroke-width:0.0351896;paint-order:markers fill stroke"
         d="M 2.38125,4.4979166 H 5.2916666 V 4.2333333 h 1.5875 V 3.96875 H 7.1437499 V 3.7041666 H 7.4083332 V 3.175 H 7.1437499 V 3.4395833 H 6.8791666 V 3.7041666 H 2.6458333 v 0.2645834 0 H 2.38125 Z"
         id="path21380" />
      <path
         style="fill:#cccccc;stroke:none;stroke-width:0.0351896;paint-order:markers fill stroke"
         d="M 2.38125,6.8791666 H 6.0854166 V 7.1437499 H 7.1437499 V 7.4083332 H 7.4083332 V 7.6729166 H 2.6458333 V 7.1437499 H 2.38125 Z"
         id="path21448" />
      <path
         style="fill:#ececec;stroke:none;stroke-width:0.0351896;paint-order:markers fill stroke"
         d="M 1.8520833,6.0854166 H 6.3499999 V 6.3499999 H 6.8791666 V 6.8791666 H 7.1437499 V 7.1437499 H 6.0854166 V 6.8791666 h -3.96875 V 6.3499999 H 1.8520833 Z"
         id="path21516" />
      <path
         style="fill:#ececec;stroke:none;stroke-width:0.0351896;paint-order:markers fill stroke"
         d="M 7.4083332,7.6729166 V 7.4083332 H 7.1437499 V 6.8791666 h 0.5291667 v 0.79375 z"
         id="path21551" />
    </g>
    <g
       inkscape:groupmode="layer"
       id="layer10"
       inkscape:label="outline"
       style="display:inline"
       sodipodi:insensitive="true">
      <path
         style="fill:none;fill-opacity:1;stroke:#000000;stroke-width:0.0351896;stroke-miterlimit:4;stroke-dasharray:none;stroke-opacity:1;paint-order:markers fill stroke"
         d="m 2.6458333,7.6729166 h 5.0270833 v -0.79375 H 7.1437499 V 7.4083332 H 7.4083332 7.1437499 V 6.8791666 H 6.8791666 V 6.3499999 H 6.3499999 V 5.2916666 H 6.6145832 V 4.7624999 H 6.8791666 V 3.96875 H 7.14375 V 3.7041667 h 0.2645834 l -1e-7,-0.79375 H 7.14375 V 2.6458333 2.38125 H 6.8791666 1.8520833 V 3.175 H 2.38125 6.8791667 V 2.6458333 H 6.6145833 l 1e-7,0.2645834 -1e-7,-0.2645834 H 6.8791667 V 2.9104167 3.175 H 2.38125 V 3.4395833 H 2.6458333 V 3.96875 H 2.38125 V 4.7624999 H 2.1166666 V 5.2916666 H 1.8520833 V 6.3499999 H 2.1166666 V 6.8791666 H 2.38125 v 0.2645833 h 0.2645833 z"
         id="path3618"
         sodipodi:nodetypes="ccccccccccccccccccccccccccccccccccccccccccccccccccc" />
      <path
         style="fill:#ffffff;fill-opacity:1;stroke:#000000;stroke-width:0.0351896;stroke-miterlimit:4;stroke-dasharray:none;stroke-opacity:1;paint-order:markers fill stroke"
         d="M 7.4083332,7.4083332 V 7.1437499"
         id="path3655" />
    </g>
  </g>
  <g
     inkscape:groupmode="layer"
     id="layer11"
     inkscape:label="Frame 5"
     style="display:none;opacity:1"
     sodipodi:insensitive="true">
    <g
       inkscape:groupmode="layer"
       id="layer13"
       inkscape:label="papel"
       style="display:inline"
       sodipodi:insensitive="true">
      <path
         style="fill:#ffffff;stroke:none;stroke-width:0.0351896;paint-order:markers fill stroke"
         d="M 2.6458333,7.6729166 H 7.4083332 V 7.4083332 H 7.6729166 V 6.3499999 h -0.79375 l 2e-7,10e-8 L 6.35,6.35 V 6.0854167 l -10e-8,-0.2645834 V 4.7624999 H 6.6145832 V 3.96875 H 6.8791666 V 2.6458333 H 6.6145832 V 2.38125 H 2.1166666 V 2.6458333 H 1.8520833 v 0.79375 H 2.1166666 V 3.7041666 H 2.38125 V 4.2333333 H 2.1166666 V 5.2916666 H 1.8520833 V 6.3499999 H 2.1166666 V 6.8791666 H 2.38125 v 0.5291666 h 0.2645833 z"
         id="path12656"
         sodipodi:nodetypes="ccccccccccccccccccccccccccccccccccc" />
    </g>
    <g
       inkscape:groupmode="layer"
       id="layer24"
       inkscape:label="sombra 4">
      <path
         style="fill:#cccccc;stroke:none;stroke-width:0.0351896;paint-order:markers fill stroke"
         d="m 2.1166666,6.3499999 h 3.175 V 6.6145832 H 6.3499999 6.6145832 V 6.8791666 H 6.8791666 V 7.1437499 H 7.4083332 V 6.8791666 H 7.6729166 V 7.4083332 H 7.4083332 V 7.6729166 H 2.6458333 V 7.4083332 H 2.38125 V 6.8791666 H 2.1166666 Z"
         id="path21729" />
      <path
         style="fill:#ececec;stroke:none;stroke-width:0.0351896;paint-order:markers fill stroke"
         d="m 1.8520833,5.8208333 h 3.7041666 v 0.2645833 h 0.79375 L 6.35,6.6145834 H 6.6145834 V 6.8791667 H 6.8791667 V 7.14375 h -1.5875 V 6.8791667 h -3.175 V 6.35 L 1.8520833,6.34846 Z"
         id="path21764"
         sodipodi:nodetypes="ccccccccccccccc" />
      <path
         style="fill:#ececec;stroke:none;stroke-width:0.0351896;paint-order:markers fill stroke"
         d="M 7.4083332,7.1437499 V 6.8791666 H 7.6729166 V 6.3499999 h -0.79375 v 0.79375 z"
         id="path21799" />
      <path
         style="fill:#ececec;stroke:none;stroke-width:0.0351896;paint-order:markers fill stroke"
         d="M 1.8520833,3.175 H 6.0854166 V 2.9104166 H 6.6145832 V 3.4395833 H 6.3499999 V 3.7041666 H 2.1166666 V 3.4395833 H 1.8520833 Z"
         id="path21801" />
      <path
         style="fill:#cccccc;stroke:none;stroke-width:0.0351896;paint-order:markers fill stroke"
         d="m 2.1166666,4.4979166 h 3.96875 V 4.2333333 H 6.6145832 V 3.96875 H 6.8791666 V 3.4395833 H 6.3499999 V 3.7041666 H 2.38125 V 4.2333333 H 2.1166666 Z"
         id="path21803" />
      <path
         style="fill:#ececec;stroke:none;stroke-width:0.0351896;paint-order:markers fill stroke"
         d="m 6.6145832,3.4395833 v -0.79375 h 0.2645834 v 0.79375 z"
         id="path21838" />
      <path
         style="fill:#ececec;stroke:none;stroke-width:0.0351896;paint-order:markers fill stroke"
         d="M 2.1166666,5.0270833 H 6.3499999 V 4.7624999 h 0.2645833 l 10e-8,-0.7937499 H 6.0854167 v 0.2645833 h -3.96875 z"
         id="path21986"
         sodipodi:nodetypes="ccccccccc" />
    </g>
    <g
       inkscape:groupmode="layer"
       id="layer12"
       inkscape:label="outline 4"
       style="display:inline"
       sodipodi:insensitive="true" />
    <path
       style="fill:none;stroke:#000000;stroke-width:0.0351896;paint-order:markers fill stroke"
       d="m 2.1166666,3.7041668 v -2e-7 -0.2645833 H 1.8520833 v -0.79375 H 2.1166666 V 2.38125 H 6.6145832 V 2.6458333 H 6.8791666 V 3.96875 H 6.6145832 V 4.7624999 H 6.3499999 V 5.2916666 6.35 H 6.6145834 6.8791667 6.35 v 0.2645834 h 0.2645834 v 0.2645834 h 0.2645833 l -1e-7,-0.5291669 v -1e-7 l 1e-7,2e-7 v 0 0.79375 h 0.5291666 v 0 l 1e-7,-0.5291666 H 7.14375 V 6.8791667 6.6145834 h 0.2645834 l -1e-7,0.5291665 v 0 H 6.8791667 V 6.35 v 0 0 l 0.5291665,-2e-7 v 1e-7 l 2e-7,10e-8 H 7.6729167 V 6.6145833 7.4083334 H 7.4083334 l -2e-7,-2e-7 v 0.2645834 l -4.7624999,2e-7 V 7.4083334 H 2.3812499 V 6.8791668 H 2.1166666 V 6.3500001 H 1.8520833 V 5.2916668 H 2.1166666 V 4.2333335 H 2.3812499 V 3.7041668 H 2.1166666 L 6.35,3.7041667 v 0 -0.2635243 l 0.2645834,-0.00106 V 2.9104167 H 6.0854167 V 3.175 H 6.35"
       id="path5323"
       sodipodi:nodetypes="ccccccccccccccccccccccccccccccccccccccccccccccccccccccccccccccccccccccc" />
  </g>
  <g
     inkscape:groupmode="layer"
     id="layer14"
     inkscape:label="Frame 6"
     style="display:inline;opacity:1"
     sodipodi:insensitive="true">
    <g
       inkscape:groupmode="layer"
       id="layer16"
       inkscape:label="papel 4"
       style="display:inline"
       sodipodi:insensitive="true">
      <path
         style="fill:#ffffff;stroke:none;stroke-width:0.0351896;paint-order:markers fill stroke"
         d="M 1.8520833,4.4979158 V 3.4395825 H 2.1166666 V 3.1749992 H 6.6145832 V 3.4395825 H 6.8791666 V 3.9687492 H 7.1437499 V 4.7624991 H 6.8791666 V 5.2916658 H 6.6145832 v 0.79375 h 0.2645834 v 0.2645833 h 0.79375 V 7.4083324 H 2.6458333 V 7.1437491 H 2.1166666 V 6.8791658 H 1.8520833 v -1.5875 h 0.2645833 v -0.79375 z"
         id="path14754" />
    </g>
    <g
       inkscape:groupmode="layer"
       id="layer25"
       inkscape:label="sombra 5">
      <path
         style="fill:#ececec;stroke:none;stroke-width:0.0351896;paint-order:markers fill stroke"
         d="m 1.8520833,5.8208333 h 4.2333333 v 0.2645833 h 0.79375 v 0.79375 H 6.3499999 V 6.6145832 H 1.8520833 Z"
         id="path22302" />
      <path
         style="fill:#ececec;stroke:none;stroke-width:0.0351896;paint-order:markers fill stroke"
         d="m 6.8791666,7.1437499 v -0.79375 h 0.79375 v 0.79375 z"
         id="path22337" />
      <path
         style="fill:#cccccc;stroke:none;stroke-width:0.0351896;paint-order:markers fill stroke"
         d="m 1.8520833,6.6145832 h 4.4979166 v 0.2645834 h 0.5291667 v 0.2645833 l 0.5291668,10e-8 V 6.8791667 H 7.6729167 V 7.14375 l -1e-7,0.2645832 H 2.6458333 V 7.1437499 H 2.1166666 V 6.8791666 H 1.8520833 Z"
         id="path22201"
         sodipodi:nodetypes="cccccccccccccccc" />
      <path
         style="fill:#cccccc;stroke:none;stroke-width:0.0351896;paint-order:markers fill stroke"
         d="M 6.0854166,3.96875 H 6.6145832 V 3.7041666 H 6.0854166 Z"
         id="path23345" />
      <path
         style="fill:#cccccc;stroke:none;stroke-width:0.0351896;paint-order:markers fill stroke"
         d="M 2.1166666,5.0270833 H 6.6145832 V 4.7624999 H 7.1437499 V 3.96875 H 6.8791666 V 4.2333333 H 6.6145832 V 4.4979166 H 2.1166666 Z"
         id="path23479" />
      <path
         style="fill:#ececec;stroke:none;stroke-width:0.0351896;paint-order:markers fill stroke"
         d="M 1.8520833,3.96875 V 3.7041667 H 3.96875 V 3.96875 H 6.6145832 V 4.4979166 H 1.8520833 Z"
         id="path23481"
         sodipodi:nodetypes="cccccccc" />
      <path
         style="fill:#ececec;stroke:none;stroke-width:0.0351896;paint-order:markers fill stroke"
         d="M 1.8520833,5.5562499 H 6.6145832 V 5.2916666 h 0.2645834 c 0,0 0,-0.5291667 0,-0.5291667 H 6.6145832 V 5.0270833 H 2.1166666 V 5.2916666 H 1.8520833 Z"
         id="path23758" />
    </g>
    <g
       inkscape:groupmode="layer"
       id="layer15"
       inkscape:label="outline 5"
       sodipodi:insensitive="true">
      <g
         id="g14718">
        <path
           style="fill:none;stroke:#000000;stroke-width:0.0351896;paint-order:markers fill stroke"
           d="M 1.8520833,3.7041666 V 3.4395833 H 2.1166666 V 3.175 H 6.6145832 V 3.4395833 H 6.8791666 V 3.96875 H 7.1437499 V 4.7624999 H 6.8791666 V 5.2916666 H 6.6145832 v 0.79375 h 0.2645834 l 1e-7,1.0583334 H 7.14375 7.4083333 l -10e-8,-0.5291668 -0.2645832,2e-7 V 6.8791667 6.6145834 l 0.2645832,-2e-7 10e-8,0.5291668 H 6.8791667 l -1e-7,-0.7937501 h 0.79375 v 0.2645833 l 1e-7,2e-7 v 0.5291667 l -1e-7,-2e-7 V 7.4083332 H 2.6458333 V 7.1437499 H 2.1166666 V 6.8791666 H 1.8520833 v -1.5875 h 0.2645833 v -0.79375 H 1.8520833 Z"
           id="path12786"
           sodipodi:nodetypes="cccccccccccccccccccccccccccccccccccccccccc" />
        <path
           style="fill:none;stroke:#000000;stroke-width:0.0351896;paint-order:markers fill stroke"
           d="M 2.1166666,4.4979166 H 6.6145834 V 4.2333333 h -2e-7 V 3.7041666 l -0.5291665,10e-8 V 4.2333333 H 6.35 V 3.96875"
           id="path12854"
           sodipodi:nodetypes="ccccccccc" />
      </g>
    </g>
  </g>
</svg>
